<?xml version="1.0" standalone="no"?>
<!DOCTYPE svg PUBLIC "-//W3C//DTD SVG 20010904//EN"
 "http://www.w3.org/TR/2001/REC-SVG-20010904/DTD/svg10.dtd">
<svg version="1.0" xmlns="http://www.w3.org/2000/svg"
 width="300.000000pt" height="300.000000pt" viewBox="0 0 300.000000 300.000000"
 preserveAspectRatio="xMidYMid meet">
<metadata>
Created by potrace 1.11, written by Peter Selinger 2001-2013
</metadata>
<g transform="translate(0.000000,300.000000) scale(0.100000,-0.100000)"
fill="#000000" stroke="none">
<path d="M93 2613 c-47 -30 -85 -90 -85 -136 -1 -21 36 -108 104 -247 247
-504 281 -576 284 -603 7 -52 68 -137 98 -137 30 0 34 -22 14 -62 -29 -56 -27
-132 5 -199 24 -50 52 -104 214 -409 33 -63 91 -173 128 -245 76 -147 127
-207 194 -225 28 -7 178 -10 474 -8 552 4 496 -20 647 273 46 88 100 192 120
230 240 453 246 469 210 573 -11 31 -19 56 -17 56 60 18 120 84 132 146 7 36
25 73 245 525 158 323 167 361 103 432 -33 37 -82 63 -117 63 -24 0 -103 -26
-452 -148 -94 -33 -189 -63 -212 -67 -55 -9 -114 -53 -136 -102 l-17 -40 -47
24 -47 24 -445 -3 c-399 -3 -448 -5 -476 -20 l-32 -17 -12 29 c-18 43 -73 87
-122 100 -61 14 -161 48 -421 139 -126 45 -243 81 -261 81 -18 0 -50 -12 -73
-27z"/>
</g>
</svg>
